<svg width="71" height="71" viewBox="0 0 71 71" fill="none" xmlns="http://www.w3.org/2000/svg">
<path d="M64.7778 34.9258C62.7339 34.5545 60.6716 34.2932 58.5997 34.1429C53.4436 33.7742 48.2615 34.0885 43.1877 35.0775C45.9187 38.112 48.1248 40.5395 49.5601 42.1629C52.0392 44.9577 58.5208 52.3071 60.9089 54.6921C63.033 56.8163 64.0131 57.854 64.4683 58.3335C67.1841 61.1282 68.6892 62.6758 69.642 62.3086C70.5948 61.9414 70.6464 59.614 70.5827 58.1696C70.4431 55.1261 69.6632 48.2591 64.7778 34.9258Z" fill="url(#paint0_linear_1482_2)"/>
<path d="M35.2951 35.2929C36.7955 32.2262 38.6831 29.3646 40.9119 26.7783C44.972 22.0779 47.2569 21.7047 47.8911 21.6197C49.9242 21.3709 51.6629 22.0961 52.7189 22.6727C54.3999 23.7624 55.9947 24.9798 57.489 26.314C60.3146 28.824 62.7669 31.7249 64.7717 34.9288C54.9113 33.144 44.7574 33.9299 35.2891 37.2107L35.2951 35.2929Z" fill="#F18919"/>
<path d="M34.943 5.80122C34.5093 8.22687 34.2296 10.6775 34.1055 13.1385C33.8656 18.03 34.2315 22.9324 35.1948 27.7342C37.4707 25.5089 39.8042 23.2735 42.1953 21.028C46.399 17.0711 50.5703 13.2933 54.7093 9.69441C56.8334 7.5703 57.8712 6.58714 58.3355 6.13501C61.1302 3.40401 62.6778 1.91107 62.3136 0.958252C61.9495 0.00543743 59.616 -0.0431136 58.1747 0.0175753C55.1432 0.135918 48.2763 0.91577 34.943 5.80122Z" fill="url(#paint1_linear_1482_2)"/>
<path d="M35.3285 35.2717C32.2617 33.7714 29.4001 31.8837 26.8138 29.6549C22.1135 25.5949 21.7403 23.3099 21.6553 22.6757C21.4938 20.996 21.862 19.3079 22.7082 17.8479C23.797 16.1662 25.0144 14.5714 26.3496 13.0778C28.8595 10.2522 31.7605 7.79988 34.9643 5.79514C33.1754 15.6553 33.9614 25.8103 37.2462 35.2778L35.3285 35.2717Z" fill="#5EC0C6"/>
<path d="M35.6834 64.7664C36.1352 62.2541 36.4231 59.7149 36.5452 57.1652C36.7652 52.4783 36.4229 47.7819 35.5256 43.1764C32.4912 45.9074 30.0636 48.1134 28.4432 49.5487C25.6333 52.04 18.2991 58.5094 15.914 60.8945C13.7899 63.0186 12.7521 64.0018 12.2727 64.4539C9.47798 67.1697 7.93042 68.6778 8.29455 69.6124C8.67689 70.6077 10.9922 70.6168 12.4366 70.5562C15.471 70.4317 22.347 69.6489 35.6834 64.7664Z" fill="url(#paint2_linear_1482_2)"/>
<path d="M5.81245 35.654C8.03224 36.0559 10.2734 36.3294 12.5246 36.4733C17.502 36.7828 22.4985 36.4565 27.3934 35.5023C25.2794 33.1456 23.1553 30.7838 21.0211 28.4169C17.2462 24.2132 13.4744 20.0368 9.70564 15.8877C7.58153 13.7636 6.59837 12.7258 6.14624 12.2615C3.41524 9.46681 1.92229 7.91925 0.96948 8.28338C0.0166655 8.64751 -0.0440233 10.981 0.0166655 12.4254C0.147146 15.4598 0.926998 22.3207 5.81245 35.654Z" fill="url(#paint3_linear_1482_2)"/>
<path d="M35.2952 35.2869C33.7948 38.3537 31.9072 41.2153 29.6784 43.8015C25.6183 48.5019 23.3334 48.8751 22.6992 48.9601C20.6661 49.2089 18.9274 48.4837 17.8714 47.9071C16.1911 46.8164 14.5964 45.5991 13.1013 44.2658C10.2748 41.7555 7.82241 38.8535 5.8186 35.648C11.1384 36.6118 16.5664 36.8314 21.9467 36.3004C26.4968 35.8506 30.9781 34.8668 35.2982 33.3691L35.2952 35.2869Z" fill="#FCE155"/>
<path d="M35.3103 35.2838C38.3771 36.7841 41.2387 38.6718 43.825 40.9005C48.5253 44.9606 48.8986 47.2456 48.9835 47.8798C49.2324 49.9128 48.5071 51.6516 47.9306 52.7076C46.8399 54.3879 45.6226 55.9826 44.2893 57.4777C41.779 60.3041 38.8769 62.7566 35.6714 64.7604C36.6353 59.4406 36.8548 54.0126 36.3238 48.6323C35.8741 44.0822 34.8902 39.6008 33.3926 35.2808L35.3103 35.2838Z" fill="#3780C3"/>
<path d="M35.295 43.1825C39.6557 43.1825 43.1906 39.6475 43.1906 35.2869C43.1906 30.9262 39.6557 27.3912 35.295 27.3912C30.9344 27.3912 27.3994 30.9262 27.3994 35.2869C27.3994 39.6475 30.9344 43.1825 35.295 43.1825Z" fill="#4364AD"/>
<defs>
<linearGradient id="paint0_linear_1482_2" x1="56.8913" y1="35.7845" x2="56.8913" y2="64.1414" gradientUnits="userSpaceOnUse">
<stop stop-color="#E7651C"/>
<stop offset="0.21" stop-color="#E96C1B"/>
<stop offset="0.51" stop-color="#EF811A"/>
<stop offset="0.6" stop-color="#F18919"/>
<stop offset="1" stop-color="#F18919"/>
</linearGradient>
<linearGradient id="paint1_linear_1482_2" x1="35.9292" y1="13.8577" x2="64.2648" y2="13.8577" gradientUnits="userSpaceOnUse">
<stop stop-color="#00959B"/>
<stop offset="0.14" stop-color="#169FA5"/>
<stop offset="0.42" stop-color="#4DB8BE"/>
<stop offset="0.5" stop-color="#5EC0C6"/>
<stop offset="1" stop-color="#5EC0C6"/>
</linearGradient>
<linearGradient id="paint2_linear_1482_2" x1="32.3486" y1="56.8799" x2="3.99475" y2="56.8799" gradientUnits="userSpaceOnUse">
<stop stop-color="#2E64A2"/>
<stop offset="0.46" stop-color="#3780C3"/>
<stop offset="1" stop-color="#3780C3"/>
</linearGradient>
<linearGradient id="paint3_linear_1482_2" x1="13.699" y1="33.1719" x2="13.699" y2="4.81501" gradientUnits="userSpaceOnUse">
<stop offset="0.08" stop-color="#FDC300"/>
<stop offset="0.5" stop-color="#FCD73A"/>
<stop offset="0.68" stop-color="#FCE155"/>
<stop offset="1" stop-color="#FCE155"/>
</linearGradient>
</defs>
</svg>
