<svg width="50" height="51" viewBox="0 0 50 51" fill="none" xmlns="http://www.w3.org/2000/svg">
<path d="M50 43.2931C50 47.182 46.9444 50.2375 43.0556 50.2375H6.94444C3.05556 50.2375 0 47.182 0 43.2931V7.18199C0 3.2931 3.05556 0.237549 6.94444 0.237549H43.0556C46.9444 0.237549 50 3.2931 50 7.18199V43.2931Z" fill="#FF9800"/>
<path d="M29.0278 34.1263C31.1111 33.7096 33.0556 32.8763 34.7222 31.7652C36.1111 30.9319 36.5278 29.1263 35.6945 27.7374C34.8611 26.3485 33.0556 25.9319 31.6667 26.7652C27.6389 29.2652 22.3611 29.2652 18.3333 26.7652C16.9445 25.9319 15.1389 26.3485 14.3056 27.7374C13.4722 29.1263 13.8889 30.9319 15.2778 31.7652C17.0833 32.8763 19.0278 33.7096 20.9722 34.1263L15.4167 39.6819C14.3056 40.793 14.3056 42.5985 15.4167 43.8485C15.9722 44.4041 16.6667 44.6819 17.5 44.6819C18.1945 44.6819 19.0278 44.4041 19.5833 43.8485L25 38.4319L30.4167 43.8485C31.5278 44.9596 33.3333 44.9596 34.5833 43.8485C35.6945 42.7374 35.6945 40.9319 34.5833 39.6819L29.0278 34.1263ZM25 5.79297C19.5833 5.79297 15.2778 10.0985 15.2778 15.5152C15.2778 20.9319 19.5833 25.2374 25 25.2374C30.4167 25.2374 34.7222 20.9319 34.7222 15.5152C34.7222 10.0985 30.4167 5.79297 25 5.79297ZM25 19.6819C22.6389 19.6819 20.8333 17.8763 20.8333 15.5152C20.8333 13.1541 22.6389 11.3485 25 11.3485C27.3611 11.3485 29.1667 13.1541 29.1667 15.5152C29.1667 17.8763 27.3611 19.6819 25 19.6819Z" fill="white"/>
</svg>
