<svg width="55" height="56" viewBox="0 0 55 56" fill="none" xmlns="http://www.w3.org/2000/svg">
<path d="M27.5 0.237549C12.375 0.237549 0 12.6125 0 27.7375C0 42.8625 12.375 55.2375 27.5 55.2375C42.625 55.2375 55 42.8625 55 27.7375C55 12.6125 42.625 0.237549 27.5 0.237549Z" fill="#1976D2"/>
<path d="M29.15 40.3879C16.775 40.3879 9.76249 32.0004 9.48749 17.8379H15.675C15.8125 28.1504 20.4875 32.5504 24.0625 33.3754V17.8379H29.8375V26.7754C33.4125 26.3629 37.125 22.3754 38.3625 17.8379H44.1375C43.175 23.3379 39.05 27.4629 36.1625 29.1129C39.05 30.4879 43.725 34.0629 45.375 40.3879H38.9125C37.5375 36.1254 34.1 32.8254 29.5625 32.2754V40.3879H29.15Z" fill="white"/>
</svg>
