<svg width="13" height="8" viewBox="0 0 13 8" fill="none" xmlns="http://www.w3.org/2000/svg">
<path d="M6.5 8C6.34454 8 6.19414 7.96946 6.04879 7.9084C5.90266 7.84733 5.78102 7.7659 5.68386 7.66412L0.320627 2.0458C0.106875 1.82188 0 1.53689 0 1.19084C0 0.844783 0.106875 0.559796 0.320627 0.335877C0.534379 0.111959 0.806427 0 1.13677 0C1.46711 0 1.73916 0.111959 1.95291 0.335877L6.5 5.09924L11.0471 0.335877C11.2608 0.111959 11.5329 0 11.8632 0C12.1936 0 12.4656 0.111959 12.6794 0.335877C12.8931 0.559796 13 0.844783 13 1.19084C13 1.53689 12.8931 1.82188 12.6794 2.0458L7.31614 7.66412C7.19955 7.78626 7.07324 7.87257 6.93722 7.92305C6.8012 7.97435 6.65546 8 6.5 8Z" fill="#2E4555"/>
</svg>
