<svg width="33" height="34" viewBox="0 0 33 34" fill="none" xmlns="http://www.w3.org/2000/svg">
<path d="M4.92 0.81L16.5 12.39L28.02 0.87C28.2745 0.599152 28.581 0.382484 28.9212 0.232987C29.2615 0.0834895 29.6284 0.00424303 30 0C30.7957 0 31.5587 0.31607 32.1213 0.87868C32.6839 1.44129 33 2.20435 33 3C33.007 3.36781 32.9388 3.73316 32.7995 4.07364C32.6602 4.41413 32.4528 4.72256 32.19 4.98L20.52 16.5L32.19 28.17C32.6844 28.6537 32.9744 29.3088 33 30C33 30.7956 32.6839 31.5587 32.1213 32.1213C31.5587 32.6839 30.7957 33 30 33C29.6177 33.0159 29.2362 32.952 28.8799 32.8126C28.5235 32.6732 28.2 32.4611 27.93 32.19L16.5 20.61L4.95 32.16C4.69652 32.4218 4.39369 32.6308 4.05901 32.775C3.72432 32.9192 3.36439 32.9957 3 33C2.20435 33 1.44129 32.6839 0.878679 32.1213C0.31607 31.5587 -1.61293e-07 30.7956 -1.61293e-07 30C-0.00699465 29.6322 0.0612461 29.2668 0.200535 28.9264C0.339823 28.5859 0.547221 28.2774 0.81 28.02L12.48 16.5L0.81 4.83C0.315555 4.34628 0.0256187 3.69124 -1.61293e-07 3C-1.61293e-07 2.20435 0.31607 1.44129 0.878679 0.87868C1.44129 0.31607 2.20435 0 3 0C3.72 0.009 4.41 0.3 4.92 0.81Z" fill="#2E4555"/>
</svg>
